<svg id="Lag_1" data-name="Lag 1" xmlns="http://www.w3.org/2000/svg" viewBox="0 0 200 200"><defs><style>.cls-1{fill:#fff;}</style></defs><title>fb_logo</title><path class="cls-1" d="M154.47,4.5H46.53a40,40,0,0,0-40,40V152.47a40,40,0,0,0,40,40H154.47a40,40,0,0,0,40-40V44.53A40,40,0,0,0,154.47,4.5ZM115.17,60v6.64h21L131,87.4,115.17,87v90.39H84.75V87H66.55V66.64h18.2V58.07q0-14.77,9.22-24.21t27.84-9.42c2.71,0,5.43.11,8.14.32s5.36.4,7.93.54V46.11c-3.57-.43-7.3-1.5-11.15-1.5-4.14,0-6.74.12-8.89,2.89C114.59,51.69,115.17,55.43,115.17,60Z"/></svg>
