<svg id="Lag_1" data-name="Lag 1" xmlns="http://www.w3.org/2000/svg" viewBox="0 0 600 300"><defs><style>.cls-1{fill:#fff;}</style></defs><title>logo</title><path class="cls-1" d="M236.62,175.35a11.55,11.55,0,0,0-2.7-.15h-.37q-12.74.28-25.47.59c-1.71,0-3.41.11-5.12.18-2.4.09-4.88.18-7.31.21a14.15,14.15,0,0,1-1.68-.09c.33-.43.68-.84,1-1.26a39.38,39.38,0,0,0,2.7-3.55c5.66-8.65,5.82-16.77.49-24.81-5.12-7.73-12.73-11.92-20.08-16a128.47,128.47,0,0,0-29.6-11.72c-8.29-2.15-16.76-4.15-25-6.08l-6.33-1.5-1.21-.27,1.93-.55c2.74-.77,5.57-1.58,8.34-2.43,14-4.32,25.79-9.48,36.07-15.77,7.41-4.54,12.53-9.32,16.12-15,3.48-5.54,3.45-11.22-.06-16.41-4-5.9-10.1-8.71-16.11-10.86-13.23-4.75-27-5.79-38.66-6.18-7.59-.25-15.29,0-22.72.3l-4.18.15c-5.16.18-10.19.58-14.94,1.18-8.47,1.08-18.33,2.37-28,4-7.66,1.3-15.37,2.9-22.83,4.45l-4.92,1c-1.24.25-3.11.63-4.08,2.3a4.9,4.9,0,0,0-.18,4.08l.51,1.53,1.61-.08h.43a8.11,8.11,0,0,0,1.23-.1q5.79-1.07,11.58-2.2c8.37-1.62,17-3.3,25.58-4.52,14-2,27.61-3.47,40.56-4.38a183,183,0,0,1,38.88,1.9c6.2.89,13.42,2.26,20,5.59,3.56,1.81,6,4.24,7.06,7a11,11,0,0,1-.88,9,31.25,31.25,0,0,1-12.43,12.74c-6.26,3.68-13,6.88-19.52,10l-3.16,1.5c-8.6,4.09-17.85,5.88-26.59,7.36-.59.1-1.42.24-1.95.29-.09-.43-.19-1.07-.29-1.66l-.1-.66c-1.22-7.59-2.74-15.23-4.21-22.62l0-.15a4.57,4.57,0,0,0-1.79-2.52,5,5,0,0,1-.47-.42l-2.53-2.68-1,3.54a4.13,4.13,0,0,1-.21.55A4.79,4.79,0,0,0,93.5,83c.59,2.87,1.24,5.76,1.88,8.56.57,2.55,1.14,5.09,1.68,7.65.35,1.7.6,3.41.86,5.22.13.88.25,1.75.39,2.62a3,3,0,0,1,0,.53H98c-1.58,0-3.14.13-4.65.25-1.27.09-2.47.18-3.68.21-5.42.15-10.85.26-16.27.38l-8.14.17a2.43,2.43,0,0,1-.27,0,4.2,4.2,0,0,0-2.28.46,13.68,13.68,0,0,0-1.88,1.39c-.19.16-.39.33-.59.48l-2.81,2.22,3.3,1.39a4.68,4.68,0,0,1,.59.3,5.75,5.75,0,0,0,2.6.83c1.57,0,3.15,0,4.67,0,1.77,0,3.43-.08,5.11,0,4.64.17,9.36.39,13.93.6,3.88.18,7.75.37,11.63.52a2,2,0,0,1,.46.06,2,2,0,0,1,.09.55c.19,2.39.45,4.79.7,7l.93,8.24c1,8.95,2,18.21,3.13,27.32.77,6.51,1.68,12.89,2.55,18.8a7.62,7.62,0,0,0,1,2.57c.13.24.26.48.37.72l.81,1.75,3.82-1.35.1-1.37c0-.11,0-.23,0-.34a6.14,6.14,0,0,0,.06-1.4l-.24-2.72c-.29-3.27-.59-6.65-1-10-.75-6.74-1.76-15.62-2.86-24.5-.71-5.76-1.49-11.61-2.25-17.27q-.5-3.72-1-7.43c2.27.38,4.55.74,6.82,1.11,5,.79,10.1,1.62,15.09,2.63,16.74,3.39,30.07,7.62,42,13.3,8.68,4.16,14.76,8.25,19.68,13.28,9.37,9.54,5.53,20-1.18,26.67a5.76,5.76,0,0,1-4.67,1.84c-2.43-.14-4.89-.18-7.26-.22-3,0-6.06-.11-9-.36-6-.52-12.09-1.19-18-1.85-3.27-.36-6.53-.72-9.8-1.06a8,8,0,0,0-3.77.39,5.44,5.44,0,0,0-2.08,1.68c-.14.15-.27.31-.41.44l-1.53,1.5,1.52,1.51a5.82,5.82,0,0,1,.4.45,6.37,6.37,0,0,0,1.88,1.61,9.39,9.39,0,0,0,3.58.88l8,.44c7.55.43,15.36.87,23.07,1.05s15.38.16,22.88.14q6.14,0,12.28,0c1.45,0,2.94.08,4.38.15s2.93.14,4.42.15l2,0c4.56,0,9.28.08,13.94-.11a21.5,21.5,0,0,0,7.34-1.66,3.09,3.09,0,0,0,2-3.12A3.5,3.5,0,0,0,236.62,175.35Z"/><path class="cls-1" d="M462.4,181.13a5,5,0,0,0,2.79,1.57,6.55,6.55,0,0,1,.67.2l2.33.92.51-2.46c.05-.22.11-.44.17-.67a8.88,8.88,0,0,0,.36-2.31,5.44,5.44,0,0,0-.6-2.28c-.06-.14-.12-.28-.17-.42l-.83-2.17c-1.2-3.16-2.4-6.32-3.63-9.47a4.12,4.12,0,0,1,.3-3.71,89.38,89.38,0,0,0,5.79-13.64c3.67-12.12,3.18-24.54,2.34-34,0-.47-.07-.85-.07-1.13.24,0,.58,0,1.07,0,1.24,0,2.47,0,3.7,0,3,0,6.07,0,9.13-.1a6.36,6.36,0,0,0,3.89-2,2.52,2.52,0,0,0,.65-2c-.11-1-.82-4.06-5.35-3.7-2.67.21-5.41.35-8.06.47-1.78.09-3.57.17-5.35.28a3.14,3.14,0,0,1-.59,0,3.7,3.7,0,0,1-.23-.84c-2.37-12.84-5.73-22.85-10.57-31.51-3.5-6.24-7.74-12.53-15.07-16.25-5.85-3-11.39-2.08-14.12,2.3a24,24,0,0,0-1.95,4.2c-.18.46-.36.93-.55,1.38,0,.13-.11.26-.16.4h0l-.21.46a8.57,8.57,0,0,0-.72,1.88c-1.5,6.45-.37,12.7.79,17.43,1.25,5.12,2.74,10.25,4.18,15.21.51,1.78,1,3.56,1.54,5.34.05.19.09.34.12.47l-.56,0c-.75,0-1.51.09-2.26.15-1,.07-1.92.14-2.86.17q-14.65.34-29.31.64-13.65.27-27.3.48l-8.71.15c-5.9.11-12,.22-18,.26-9.33.08-18.67.12-28,.17q-9.27,0-18.55.09h-.51a7.55,7.55,0,0,0-3.44.53,6.49,6.49,0,0,0-2.26,2c-.17.21-.34.42-.51.6l-2,2.12,2.63,1.25c.21.1.42.23.64.36a5.19,5.19,0,0,0,2.95,1c3.47-.1,7-.27,10.38-.43,3-.14,6.14-.29,9.21-.39,14.25-.47,26-.8,36.84-1,8.9-.21,17.94-.33,26.7-.45l6.28-.09q3.78,0,7.57-.06c2.33,0,4.66,0,7,0l9.83-.14c8.44-.12,17.17-.24,25.69-.29a2,2,0,0,1,.81.46C439.68,119.7,443,128,446,136.25c3.05,8.46,6.07,17.11,9,25.48q2.59,7.44,5.21,14.88A16.33,16.33,0,0,0,462.4,181.13Zm.27-76.18-7.36,0c-4.09,0-8.17,0-12.25.06a2.3,2.3,0,0,1-1-.09,1.14,1.14,0,0,1-.17-.38c-1-3-1.95-6.08-2.94-9.11-1.79-5.5-3.65-11.18-5.23-16.81-1.18-4.23-2.11-8.75-.9-13.18.92-2,2.52-2.85,5.34-2.79,5.33.11,9.73,2.63,13.84,7.94,7.61,9.82,10.75,21.44,12.64,30.47.18.86.36,1.61.51,2.26s.26,1.1.34,1.55C464.81,105,463.73,105,462.67,105Zm-16.54,6.64h9.36l2.09,0v0h1c2.5,0,5.08,0,7.63,0h.37a2.67,2.67,0,0,1,.06.32,78.59,78.59,0,0,1-.36,27.4,116.38,116.38,0,0,1-3.33,11.91c-.52,1.65-1.05,3.3-1.54,5q-1.53-4-3-8.08l-1.94-5.24q-5.55-14.85-11.06-29.72c-.15-.41-.36-1-.52-1.45Z"/><path class="cls-1" d="M450.3,164.42c-.59.22-1.18.44-1.77.68-5.72,2.26-13.33,4.8-21.56,4.4-5.58-.27-12-3.43-13.73-9.87a8.76,8.76,0,0,0-1.27-2.49c-.25-.37-.52-.79-.82-1.29L408.9,152l-1.55,4.15c-.41,1.07-.75,2.06-1.07,3a40.86,40.86,0,0,1-1.83,4.64c-1.87,3.74-4.35,5.54-8,5.83-7.56.58-16.69-5.78-19.17-13.38-.21-.64-.48-1.24-.71-1.77-.1-.21-.19-.42-.28-.63l-.64-1.53-1.64.26a4.81,4.81,0,0,0-3.45,2,4.5,4.5,0,0,0-.55,3.65,24,24,0,0,0,1.68,4.74c.12.26.2.44.24.56s-.25.17-.46.29a49.74,49.74,0,0,1-19.51,5.56c-10.58,1-18-.75-24.12-5.57-2.06-1.64-3.69-2.92-5.56-2.38s-2.48,2.43-3.37,5c-.78,2.32-1.81,3.75-3.05,4.26s-3,.19-5.25-.94c-5-2.53-8.17-7.09-10.36-10.78-.39-.66-1-1.89-.53-2.78s1.63-1.35,3.27-1.5a12.85,12.85,0,0,1,12,4.9,4.34,4.34,0,0,0,2.57,1.33,4.58,4.58,0,0,1,.53.14l2.88,1-.06-3.06a3.57,3.57,0,0,1,0-.56,5.14,5.14,0,0,0-.33-2.65c-2.14-4.44-6.34-6.11-10.1-7.32a14.05,14.05,0,0,0-11.11,1.44,10.14,10.14,0,0,0-5.08,6.61c-1.08,5.57.09,10.06,3.57,13.71-1.18.34-2.36.67-3.55,1-14.12,3.68-26.82,4.16-38.81,1.48-8.15-1.83-12.62-7-14.08-16.31a1.77,1.77,0,0,1,1.16-2.17c2.83-1.25,11.79-.61,14.71,3,.66.82.78,1.32.75,1.47s-.17.31-.66.59a18,18,0,0,1-4.45,1.51c-.53.13-1.06.26-1.58.41a9.32,9.32,0,0,1-1.55.18l-1,.07-1.69.18-.52,4.44,1.8.45.67.21a7.15,7.15,0,0,0,2.52.48,19.85,19.85,0,0,0,12.29-4.46,6.23,6.23,0,0,0,2.45-4.54,6.15,6.15,0,0,0-2-4.64,25.64,25.64,0,0,0-12.64-7A13.8,13.8,0,0,0,239,150.1a14.11,14.11,0,0,0-3.9,13c.91,5,3.82,9.2,8.89,12.74,6.82,4.77,14.79,7.11,24.21,7.11a64.82,64.82,0,0,0,6.7-.36,79.87,79.87,0,0,0,23.77-6.74c2.5-1.1,4.24-1.49,6.28-.4a13.53,13.53,0,0,0,17.4-3.36,5.31,5.31,0,0,1,.63-.64,6.94,6.94,0,0,1,1.4.82c3.43,2.38,7.17,4.73,12,4.92a68.66,68.66,0,0,0,36.24-8.67c1.78-1,1.78-1,3,.64a20.75,20.75,0,0,0,11.11,7.36c8.18,2.24,15.54-.17,21.88-7.19.3-.33.52-.56.69-.73.17.18.39.43.69.79,3.85,4.62,8,6.83,12.66,6.77,4.16-.07,8.86-.14,13.27-1.27a114.66,114.66,0,0,0,12-4.05q2.47-.94,5-1.85l2-.71-1.79-4.86Z"/><path class="cls-1" d="M550.49,250.53c-2.31-8.34-5.14-18.15-8.56-27.64s-7.23-19.35-10.87-28.74q-2.71-7-5.39-14a6.29,6.29,0,0,1-.25-.8,4.23,4.23,0,0,1,.7-.12c3.94-.44,8-.67,11.91-.9l4.19-.25a5.84,5.84,0,0,1,.82,0,7.6,7.6,0,0,0,2.05-.07,3.76,3.76,0,0,0,2.88-2.86,3.72,3.72,0,0,0-2.05-3.45,6.52,6.52,0,0,0-2.3-.61l-.37-.05c-6.77-1-13.16.31-18.53,1.73a10,10,0,0,1-1.27.25,2.33,2.33,0,0,1-.39-.88c-1.56-5.4-3.37-10.78-4.94-15.34a11.74,11.74,0,0,0-1.59-2.85c-.22-.32-.44-.63-.63-.95l-3.13-5.11-.77,5.94c-.05.37-.13.74-.21,1.12a9.58,9.58,0,0,0-.25,3.47,9.3,9.3,0,0,1-1.72,7.52,8.85,8.85,0,0,1-6.81,3c-6.25.19-11.66-2.49-16.52-8.18-.86-1-1.63-2.09-2.45-3.24l-1.16-1.62-1.06-1.43-3.91,2,.25,1.54c.06.38.1.76.15,1.15a11.42,11.42,0,0,0,.67,3.25c2.47,6.05,7.12,10.37,14.65,13.6,4.79,2.06,9.48,1.67,13.23-1.09A52,52,0,0,0,512.3,170c.71-.7,1.43-1.41,2.16-2.09.28.83.53,1.67.8,2.56.35,1.2.72,2.45,1.18,3.67.53,1.41.4,1.76-.92,2.51A29.63,29.63,0,0,0,503,190.91c-4.12,9.33-5,19.61-2.52,30.55,3.94,17.61,11,29.8,22.21,38.35,6.58,5,12.79,7.36,19.48,7.36h.66c4.55-.1,7.53-2.68,8-6.9A26.31,26.31,0,0,0,550.49,250.53ZM504.67,210.9c0-.55,0-1.11,0-1.66v-.06c-.2-7.29,1.3-13.49,4.61-19,2-3.31,5.07-6.08,9.68-8.7l.25-.13a4.23,4.23,0,0,1,.39.82c3.42,9,6.93,18.08,10.83,28.09q2,5.14,4,10.28c2.7,6.82,5.49,13.87,8.07,20.86,2,5.39,3.24,10,2.89,14.81-.19,2.57-.38,2.75-3,2.83-6.2.17-11.76-2.11-18.59-7.64-10.43-8.44-16.54-20.39-19.22-37.59A15.06,15.06,0,0,1,504.67,210.9Z"/><path class="cls-1" d="M450.1,223.67a29.45,29.45,0,0,0-4.06-1.16c-1-.21-2-.39-3-.57a50.39,50.39,0,0,1-5.29-1.16,3.29,3.29,0,0,1-1.9-1.79c0-.52.92-1.61,1.82-2.12,1.71-1,5-1.09,7.74-.28a7.87,7.87,0,0,1,4.95,3.53l.32.61,2.61-1.34-.11-.53c-.56-2.57-3-4.57-6.81-5.51-4.47-1.11-10.51-.56-12.9,2.28a5.18,5.18,0,0,0-1.24,4.25,4.63,4.63,0,0,0,2.4,3.24,17,17,0,0,0,4.55,1.6c1.13.25,2.28.44,3.4.63a37.48,37.48,0,0,1,5.39,1.18,2.66,2.66,0,0,1,.23,5.2c-3.16,1.68-11.24,1.42-14-3.34l-.34-.59-3,1.6.46.66.54.82a8.41,8.41,0,0,0,1.26,1.67c2.33,2.24,6.55,3.45,10.53,3.45a13.48,13.48,0,0,0,7.19-1.77,6,6,0,0,0,3-5.65A5.42,5.42,0,0,0,450.1,223.67Z"/><path class="cls-1" d="M478.75,216.59a12.36,12.36,0,0,0-13.7-2.81c-4.57,1.92-6.7,6-6.34,12a10.38,10.38,0,0,0,8.36,9.81,15.44,15.44,0,0,0,3.1.33,10,10,0,0,0,9.81-6.33l.47-1.15-1.23.19a4.34,4.34,0,0,0-2.63,1.24,9,9,0,0,1-9.71,2.21,6.81,6.81,0,0,1-4.56-6.18H466c3.37,0,6.73,0,10.09,0,2.89,0,4.35-.46,5-1.54s.46-2.68-.83-5.44A9.28,9.28,0,0,0,478.75,216.59Zm-16.42,5.7a5.77,5.77,0,0,1,1.21-4,7.84,7.84,0,0,1,5.6-2.78,8.51,8.51,0,0,1,6.9,2.31,6.46,6.46,0,0,1,1.91,4.52Z"/><path class="cls-1" d="M412,213.93a5.52,5.52,0,0,1-.5-.42L411,213l-1.23,1.13-.88,2.7.05.19c1.79,8.1.4,12.13-5,14.38a7.79,7.79,0,0,1-7.62-.47,5.92,5.92,0,0,1-2.15-5.71,55.73,55.73,0,0,0,.05-8.17l-.05-1.28a2.85,2.85,0,0,0-.88-1.67,4.72,4.72,0,0,1-.41-.5l-.35-.52-1.72.91v12.1a9.4,9.4,0,0,0,3.38,7.45,8.49,8.49,0,0,0,5.36,1.85,10,10,0,0,0,2.21-.25,29.68,29.68,0,0,0,6.17-2.44c.62-.3,1.25-.61,1.89-.9v0a2.87,2.87,0,0,0,.28,2.4,3,3,0,0,0,2.31.9l.74,0v-4.75c0-5.13,0-10-.07-14.91C413.1,214.83,412.5,214.36,412,213.93Z"/><path class="cls-1" d="M357.26,232a.87.87,0,0,0-.46.18h-19V206.79h-4.23v28.37h9.61c4.4,0,8.65,0,12.93-.07.68,0,1.16-.59,1.59-1.09a4.18,4.18,0,0,1,.44-.48l.45-.42-.35-.51A1.16,1.16,0,0,0,357.26,232Z"/><path class="cls-1" d="M312.61,213.39c-.2.19-.41.38-.63.56a5.69,5.69,0,0,0-1.44,1.61c-2.05,4-4,7.91-6.08,12.08l-1.49,3a6.81,6.81,0,0,1-.41-.64l-2.43-4.52c-1.76-3.27-3.58-6.66-5.43-10a5.58,5.58,0,0,0-1.6-1.61,7.65,7.65,0,0,1-.69-.56l-.47-.42-1.73,1.53.27.5c.86,1.52,1.7,3,2.54,4.56,2,3.53,4,7.18,6.1,10.68,2,3.25,1.95,5.44-.1,8.11-.65.83-1.22,1.72-1.78,2.58-.25.39-.5.78-.76,1.17l-.32.48,1.65,1.65.5-.4c.27-.22.57-.43.87-.63a5.56,5.56,0,0,0,2-1.83c2.29-4.28,4.5-8.7,6.64-13l1.27-2.53c1.27-2.54,2.52-5.08,3.77-7.62l1.93-3.91-1.7-1.33Z"/><path class="cls-1" d="M425.39,214.12,423.54,213l-.37.59c-.11.16-.24.33-.37.49a2.81,2.81,0,0,0-.81,1.65c-.08,5.6-.08,11.38,0,17.16a2.49,2.49,0,0,0,.84,1.55,4.88,4.88,0,0,1,.38.43l.63.88.55-.93c.08-.14.19-.28.29-.42a2.5,2.5,0,0,0,.67-1.46c0-4.85,0-9.78,0-14.55Z"/><path class="cls-1" d="M424.56,206c-.2-.15-.4-.3-.58-.46l-.53-.49-.47.54c-.16.18-.34.35-.52.52a3.17,3.17,0,0,0-1.2,1.8c-.07.68.39,1.22,1,2,.28.32.61.7.95,1.16l.65.87.53-.94c.28-.5.56-.91.79-1.26.55-.82.94-1.4.76-2.06A3.41,3.41,0,0,0,424.56,206Z"/><path class="cls-1" d="M269,216c0-.32,0-.65,0-1,0-2,0-3.93-.07-5.81a3,3,0,0,0-.81-1.66c-.13-.18-.27-.35-.38-.52L267,206l-.56,1.15a5,5,0,0,1-.29.5,3.21,3.21,0,0,0-.62,1.59c-.06,2.83-.05,5.69,0,8.46v17.19l2.1.65,1.29-2.73a14.54,14.54,0,0,0,8.46,3,10.22,10.22,0,0,0,7.7-3.36c3.9-4.27,3.77-12.43-.25-16.46S274.4,212,269,216Zm15.52,8.67a7.45,7.45,0,0,1-8,8c-5,0-7.8-3.12-7.79-8.46A8.43,8.43,0,0,1,271,218a7.3,7.3,0,0,1,5.24-1.95h.26C281.56,216.18,284.49,219.32,284.48,224.68Z"/><path class="cls-1" d="M373.74,212.93c-7.4-.05-11.79,4.14-11.82,11.15,0,3.69,1,6.59,3,8.61s4.87,3.06,8.55,3.07h.07c7.26,0,11.62-4.2,11.66-11.24a10.66,10.66,0,0,0-11.45-11.59Zm-.49,3.1h.17c5.33.08,8.39,3.1,8.39,8.29s-3,8.36-8.2,8.38h0a7.55,7.55,0,0,1-8.28-8.25,8.67,8.67,0,0,1,2.27-6.36A7.87,7.87,0,0,1,373.25,216Z"/></svg>
